<?xml version="1.0" standalone="no"?>
<!DOCTYPE svg PUBLIC "-//W3C//DTD SVG 20010904//EN"
 "http://www.w3.org/TR/2001/REC-SVG-20010904/DTD/svg10.dtd">
<svg version="1.0" xmlns="http://www.w3.org/2000/svg"
 width="133.000000pt" height="40.000000pt" viewBox="0 0 133.000000 40.000000"
 preserveAspectRatio="xMidYMid meet">

<g transform="translate(0.000000,40.000000) scale(0.100000,-0.100000)"
fill="#000000" stroke="none">
<path d="M124 275 c-10 -24 5 -35 50 -35 42 0 66 13 66 37 0 19 -109 18 -116
-2z"/>
<path d="M245 213 c-8 -8 -15 -30 -15 -48 0 -41 20 -55 79 -55 l41 0 0 59 0
59 -45 0 c-27 0 -51 -6 -60 -15z m63 -37 c6 -29 -15 -43 -35 -24 -14 14 -14
20 -3 33 16 19 34 15 38 -9z"/>
<path d="M360 219 c0 -6 8 -33 17 -60 21 -58 45 -65 60 -16 l10 32 13 -32 c15
-40 37 -42 50 -5 24 64 27 68 27 33 0 -43 24 -61 80 -61 l43 0 0 46 c0 59 24
55 28 -5 3 -33 7 -42 20 -39 13 2 17 14 17 42 0 23 5 41 13 43 8 3 12 -6 12
-26 0 -35 35 -65 71 -59 36 5 36 28 0 28 -17 0 -31 5 -31 10 0 6 18 10 40 10
36 0 40 -2 40 -25 0 -18 5 -25 20 -25 17 0 20 7 20 40 0 34 4 42 25 50 38 14
30 30 -16 30 -32 0 -42 -4 -46 -19 -5 -19 -5 -19 -24 0 -22 22 -59 25 -78 7
-11 -10 -14 -10 -18 0 -6 16 -184 17 -201 0 -9 -9 -12 -9 -12 0 0 26 -32 10
-42 -20 l-12 -33 -13 33 c-16 38 -40 42 -49 7 -3 -14 -10 -25 -14 -25 -4 0
-11 11 -14 25 -6 24 -36 36 -36 14z m255 -50 c0 -15 -7 -25 -18 -27 -22 -4
-33 24 -17 43 18 21 35 13 35 -16z m215 21 c0 -5 -9 -10 -20 -10 -11 0 -20 5
-20 10 0 6 9 10 20 10 11 0 20 -4 20 -10z"/>
<path d="M965 207 c-20 -29 -19 -53 4 -76 15 -15 33 -19 85 -19 65 0 66 1 66
27 l0 26 23 -29 c14 -17 30 -27 41 -25 17 4 16 6 -4 32 -21 26 -21 29 -6 52 9
13 16 27 16 30 0 12 -25 3 -47 -17 -23 -21 -23 -21 -23 -1 0 19 -6 21 -70 21
-60 0 -72 -3 -85 -21z m70 -38 c0 -17 -6 -24 -20 -24 -23 0 -33 34 -13 46 20
13 33 5 33 -22z"/>
<path d="M102 203 c2 -14 14 -19 51 -21 42 -3 48 -1 45 15 -2 14 -14 19 -51
21 -42 3 -48 1 -45 -15z"/>
<path d="M95 140 c-8 -13 3 -30 20 -30 14 0 27 24 18 34 -10 9 -31 7 -38 -4z"/>
</g>
</svg>
